<svg xmlns="http://www.w3.org/2000/svg" width="64" height="64" viewBox="0 0 64 64">
    <defs>
      <radialGradient id="bg" cx="50%" cy="42%" r="70%">
        <stop offset="0" stop-color="#24361f"/><stop offset="1" stop-color="#0a0f08"/>
      </radialGradient>
      <radialGradient id="glow" cx="50%" cy="50%" r="50%">
        <stop offset="0" stop-color="#7c4dff" stop-opacity="0.55"/>
        <stop offset="1" stop-color="#7c4dff" stop-opacity="0"/>
      </radialGradient>
    </defs>
    <rect width="64" height="64" rx="14.08" fill="url(#bg)"/>
    <circle cx="32" cy="32" r="28.799999999999997" fill="url(#glow)"/>
    <g transform="translate(32 32) rotate(0) translate(0 -19.2) scale(0.5333333333333333)">
      <polygon points="0,-15 3.6,-4 2.6,12 -2.6,12 -3.6,-4" fill="#7c4dff"/>
      <rect x="-6" y="12" width="12" height="3" fill="#ffb020"/>
      <rect x="-1.7" y="15" width="3.4" height="6" fill="#7a4a2b"/>
    </g><g transform="translate(32 32) rotate(30) translate(0 -19.2) scale(0.5333333333333333)">
      <polygon points="0,-15 3.6,-4 2.6,12 -2.6,12 -3.6,-4" fill="#b794ff"/>
      <rect x="-6" y="12" width="12" height="3" fill="#ffb020"/>
      <rect x="-1.7" y="15" width="3.4" height="6" fill="#7a4a2b"/>
    </g><g transform="translate(32 32) rotate(60) translate(0 -19.2) scale(0.5333333333333333)">
      <polygon points="0,-15 3.6,-4 2.6,12 -2.6,12 -3.6,-4" fill="#ffb020"/>
      <rect x="-6" y="12" width="12" height="3" fill="#ffb020"/>
      <rect x="-1.7" y="15" width="3.4" height="6" fill="#7a4a2b"/>
    </g><g transform="translate(32 32) rotate(90) translate(0 -19.2) scale(0.5333333333333333)">
      <polygon points="0,-15 3.6,-4 2.6,12 -2.6,12 -3.6,-4" fill="#7c4dff"/>
      <rect x="-6" y="12" width="12" height="3" fill="#ffb020"/>
      <rect x="-1.7" y="15" width="3.4" height="6" fill="#7a4a2b"/>
    </g><g transform="translate(32 32) rotate(120) translate(0 -19.2) scale(0.5333333333333333)">
      <polygon points="0,-15 3.6,-4 2.6,12 -2.6,12 -3.6,-4" fill="#b794ff"/>
      <rect x="-6" y="12" width="12" height="3" fill="#ffb020"/>
      <rect x="-1.7" y="15" width="3.4" height="6" fill="#7a4a2b"/>
    </g><g transform="translate(32 32) rotate(150) translate(0 -19.2) scale(0.5333333333333333)">
      <polygon points="0,-15 3.6,-4 2.6,12 -2.6,12 -3.6,-4" fill="#ffb020"/>
      <rect x="-6" y="12" width="12" height="3" fill="#ffb020"/>
      <rect x="-1.7" y="15" width="3.4" height="6" fill="#7a4a2b"/>
    </g><g transform="translate(32 32) rotate(180) translate(0 -19.2) scale(0.5333333333333333)">
      <polygon points="0,-15 3.6,-4 2.6,12 -2.6,12 -3.6,-4" fill="#7c4dff"/>
      <rect x="-6" y="12" width="12" height="3" fill="#ffb020"/>
      <rect x="-1.7" y="15" width="3.4" height="6" fill="#7a4a2b"/>
    </g><g transform="translate(32 32) rotate(210) translate(0 -19.2) scale(0.5333333333333333)">
      <polygon points="0,-15 3.6,-4 2.6,12 -2.6,12 -3.6,-4" fill="#b794ff"/>
      <rect x="-6" y="12" width="12" height="3" fill="#ffb020"/>
      <rect x="-1.7" y="15" width="3.4" height="6" fill="#7a4a2b"/>
    </g><g transform="translate(32 32) rotate(240) translate(0 -19.2) scale(0.5333333333333333)">
      <polygon points="0,-15 3.6,-4 2.6,12 -2.6,12 -3.6,-4" fill="#ffb020"/>
      <rect x="-6" y="12" width="12" height="3" fill="#ffb020"/>
      <rect x="-1.7" y="15" width="3.4" height="6" fill="#7a4a2b"/>
    </g><g transform="translate(32 32) rotate(270) translate(0 -19.2) scale(0.5333333333333333)">
      <polygon points="0,-15 3.6,-4 2.6,12 -2.6,12 -3.6,-4" fill="#7c4dff"/>
      <rect x="-6" y="12" width="12" height="3" fill="#ffb020"/>
      <rect x="-1.7" y="15" width="3.4" height="6" fill="#7a4a2b"/>
    </g><g transform="translate(32 32) rotate(300) translate(0 -19.2) scale(0.5333333333333333)">
      <polygon points="0,-15 3.6,-4 2.6,12 -2.6,12 -3.6,-4" fill="#b794ff"/>
      <rect x="-6" y="12" width="12" height="3" fill="#ffb020"/>
      <rect x="-1.7" y="15" width="3.4" height="6" fill="#7a4a2b"/>
    </g><g transform="translate(32 32) rotate(330) translate(0 -19.2) scale(0.5333333333333333)">
      <polygon points="0,-15 3.6,-4 2.6,12 -2.6,12 -3.6,-4" fill="#ffb020"/>
      <rect x="-6" y="12" width="12" height="3" fill="#ffb020"/>
      <rect x="-1.7" y="15" width="3.4" height="6" fill="#7a4a2b"/>
    </g>
    <circle cx="32" cy="32" r="3.2" fill="#b794ff"/>
  </svg>